<?xml version="1.0" encoding="utf-8"?>
<!-- Generator: Adobe Illustrator 19.2.0, SVG Export Plug-In . SVG Version: 6.00 Build 0)  -->
<svg version="1.0" id="Layer_1" xmlns="http://www.w3.org/2000/svg" xmlns:xlink="http://www.w3.org/1999/xlink" x="0px" y="0px"
	 viewBox="0 0 50 55" style="enable-background:new 0 0 50 55;" xml:space="preserve">
<style type="text/css">
	.st0{fill:none;stroke:#050505;stroke-width:0.4635;stroke-miterlimit:10;}
	.st1{fill:none;stroke:#070707;stroke-width:0.4635;stroke-miterlimit:10;}
</style>
<g>
	<circle class="st0" cx="23.3" cy="29.4" r="21.6"/>
	<path class="st1" d="M31,26.2L24.4,10h-1.2L9.5,43.4h0.9c0.1,0,2.5-5.1,2.5-5.1h8.3l2.3,5.1h0.1h0.2H24l2.3-5.1h8.3
		c0,0,2.3,5.1,2.5,5.1h0.9L31,26.2z M23.7,11.3c0,0.2,3.8,10.2,3.8,10.2h-7.6C19.9,21.6,23.7,11.5,23.7,11.3z M19,37.3h-5.8
		c0,0,3.8-9.7,3.8-9.9c0,0.2,3.8,9.9,3.8,9.9H19 M23.7,39.9l-6-14l1.9-3.4h8.3l1.9,3.4L23.7,39.9z M26.6,37.3c0,0,3.8-9.7,3.8-9.9
		c0,0.2,3.8,9.9,3.8,9.9H26.6z"/>
</g>
</svg>
